<svg viewBox="0 0 514 512" xmlns="http://www.w3.org/2000/svg" xml:space="preserve" style="fill-rule:evenodd;clip-rule:evenodd;stroke-linejoin:round;stroke-miterlimit:2"><path d="M391 32c40 26 90 92 91 158 1 93-58 197-123 227 17-40 45-79 52-123a405 405 0 0 0-20-262Z" style="fill:url(#a);fill-rule:nonzero"/><path d="M231 1C121-1 1 102 1 242c0 149 120 268 261 269 150 1 242-115 250-269 5-83-42-178-123-211 41 24 80 96 81 164 0 93-44 167-107 218 32-47 52-98 52-161C415 123 340 3 231 1Z" style="fill:#424a4a;fill-rule:nonzero"/><defs><radialGradient id="a" cx="0" cy="0" r="1" gradientUnits="userSpaceOnUse" gradientTransform="matrix(-162.16 130.068 -130.061 -162.169 309 115)"><stop offset="0" style="stop-color:#fff;stop-opacity:0"/><stop offset=".5" style="stop-color:#fff;stop-opacity:0"/><stop offset=".7" style="stop-color:#d9f5fb;stop-opacity:.31"/><stop offset="1" style="stop-color:#84dff2;stop-opacity:1"/></radialGradient></defs></svg>
