<!-- sign up form -->
<svg xmlns="http://www.w3.org/2000/svg" viewBox="0 0 320 512"><path d="M285 273L91 467c-9 10-24 10-34 0l-22-22c-10-10-10-25-1-34l155-155L34 101c-9-9-9-24 1-34l22-22c10-10 25-10 34 0l194 194c10 9 10 25 0 34z" fill="#fff"/></svg>
<!-- scroll up -->
<svg xmlns="http://www.w3.org/2000/svg" viewBox="0 0 104 54"><path d="M51.7 5l-48.1 48.1c-0.8 0.8-2.1 0.8-2.9 0 -0.8-0.8-0.8-2.1 0-2.9l49.6-49.6c0.8-0.8 2.1-0.8 2.9 0l49.6 49.6c0.8 0.8 0.8 2.1 0 2.9 -0.8 0.8-2.1 0.8-2.9 0l-48.1-48.1Z" fill="#999999"/></svg>
<!-- prev -->
<svg viewBox="0 0 54 104" xmlns="http://www.w3.org/2000/svg"><path d="M5.15 52.05l48.1 48.1c.8.8.8 2.1 0 2.9-.8.8-2.1.8-2.9 0L.75 53.45c-.8-.8-.8-2.1 0-2.9L50.35.95c.8-.8 2.1-.8 2.9 0 .8.8.8 2.1 0 2.9l-48.1 48.1v.1z" fill="#4C4C4C"/></svg>
<!-- next -->
<svg viewBox='0 0 54 104' xmlns="http://www.w3.org/2000/svg"><path d="M48.85 52.05l-48.1 48.1c-.8.8-.8 2.1 0 2.9.8.8 2.1.8 2.9 0l49.6-49.6c.8-.8.8-2.1 0-2.9L3.65.95c-.8-.8-2.1-.8-2.9 0-.8.8-.8 2.1 0 2.9l48.1 48.1v.1z" fill="#4C4C4C"/></svg>
<!-- close -->
<svg viewBox="0 0 104 104" xmlns="http://www.w3.org/2000/svg"><path d="M49.104 51.877L.949 3.722c-.8-.8-.8-2.1 0-2.9.8-.8 2.1-.8 2.9 0l48.1 48.1h.1l48.1-48.1c.8-.8 2.1-.8 2.9 0 .8.8.8 2.1 0 2.9L54.928 51.843l48.155 48.155c.8.8.8 2.1 0 2.9-.8.8-2.1.8-2.9 0l-48.1-48.1h-.1l-48.1 48.1c-.8.8-2.1.8-2.9 0-.8-.8-.8-2.1 0-2.9l48.121-48.121z" fill="#4C4C4C"/></svg>
