<?xml version="1.0" encoding="UTF-8" standalone="no"?><!DOCTYPE svg PUBLIC "-//W3C//DTD SVG 1.1//EN" "http://www.w3.org/Graphics/SVG/1.1/DTD/svg11.dtd"><svg width="100%" height="100%" viewBox="0 0 514 512" version="1.1" xmlns="http://www.w3.org/2000/svg" xmlns:xlink="http://www.w3.org/1999/xlink" xml:space="preserve" xmlns:serif="http://www.serif.com/" style="fill-rule:evenodd;clip-rule:evenodd;stroke-linejoin:round;stroke-miterlimit:2;"><path d="M390.881,31.89l0.048,0.031c40.119,25.734 90.361,92.255 90.958,158.147c0.84,93.236 -57.474,197.317 -122.432,226.537c16.608,-39.563 44.855,-78.363 51.687,-122.111c8.62,-33.268 12.969,-67.499 12.941,-101.866c-0,-57.089 -11.826,-111.438 -33.202,-160.738Z" style="fill:url(#_Radial1);fill-rule:nonzero;"/><path d="M230.693,0.801c-109.593,-1.712 -229.945,101.411 -229.945,241.08c0,149.548 119.912,268.336 261.113,269.31c150.223,1.045 241.857,-114.799 250.558,-269.31c4.696,-83.349 -42.908,-177.92 -123.838,-210.753c41.172,24.195 80.404,96.299 81.017,163.723c0.84,93.235 -43.356,167.475 -106.35,218.463c32.062,-47.305 51.686,-98.646 51.686,-161.287c0,-128.841 -74.656,-249.522 -184.241,-251.226Z" style="fill:#424a4a;fill-rule:nonzero;"/><defs><radialGradient id="_Radial1" cx="0" cy="0" r="1" gradientUnits="userSpaceOnUse" gradientTransform="matrix(-162.16,130.068,-130.061,-162.169,308.812,115.279)"><stop offset="0" style="stop-color:#fff;stop-opacity:0"/><stop offset="0.5" style="stop-color:#fff;stop-opacity:0"/><stop offset="0.72" style="stop-color:#d9f5fb;stop-opacity:0.31"/><stop offset="1" style="stop-color:#84dff2;stop-opacity:1"/></radialGradient></defs></svg>