<svg xmlns="http://www.w3.org/2000/svg" viewBox="0 0 55 57"><path d="M26.96 56.54a.45.45 0 01-.38.18c-.27 0-.45-.26-.45-.6 0-.33.2-.58.48-.58.15 0 .27.07.36.2l-.1.07c-.08-.1-.14-.15-.27-.15-.2 0-.34.19-.34.47 0 .28.14.47.33.48.12 0 .2-.06.28-.15l.09.08zm.85-.3v.07l-.58.01c.02.18.1.3.25.3.1 0 .15-.04.23-.09l.06.09a.5.5 0 01-.3.1c-.16 0-.36-.1-.36-.44 0-.28.14-.45.35-.45.22 0 .34.17.35.41zm.88.42h-.12l-.03-.5c0-.18-.07-.26-.2-.25-.13 0-.22.09-.2.28l.01.5h-.12l-.04-.85h.12l.01.1a.28.28 0 01.23-.14c.18 0 .3.1.31.34l.03.52zm-3.22.01h-.12l.03-.5c.02-.19-.04-.28-.18-.29-.12 0-.22.07-.23.26l-.03.5-.12-.01.07-1.12.12-.06-.02.44a.28.28 0 01.24-.1c.18 0 .3.11.28.36l-.04.52zm4.11-.53v.07l-.57.04c.03.18.12.3.26.28.1 0 .16-.04.23-.1l.06.09a.5.5 0 01-.3.12c-.15.01-.35-.09-.37-.42-.03-.27.11-.45.31-.47.23-.02.36.15.38.4zm-4.93-.28l-.21-.02-.05.56c-.01.07 0 .1.07.1h.12l-.01.1a.37.37 0 01-.16.01c-.1 0-.16-.06-.15-.2l.05-.58h-.1v-.1h.11l.03-.26.12-.06-.03.33.22.02-.01.1zm5.83.65h-.12l-.01-.1a.34.34 0 01-.24.15c-.17.02-.32-.1-.35-.4-.04-.3.09-.46.27-.48a.3.3 0 01.25.08l-.04-.36.12-.08.12 1.19zm-6.43-.4a.4.4 0 010 .07l-.58-.07c0 .18.07.3.2.32.1.02.17 0 .25-.05l.05.1a.5.5 0 01-.32.06c-.15-.02-.33-.15-.3-.49.04-.27.2-.42.4-.4.23.03.33.22.3.46zm6.83.34l-.12.02-.14-1.1.1-.1.16 1.18zm-.54-.14l-.05-.43a.28.28 0 00-.24-.1c-.14.02-.2.14-.17.37.02.22.11.32.25.3.09 0 .16-.06.2-.14zm-7.26.14l-.12-.02.01-.1a.35.35 0 01-.28.08c-.13-.01-.26-.1-.23-.3.03-.2.2-.25.36-.23.09.01.16.04.2.08l.02-.1c.02-.13-.03-.2-.16-.21a.44.44 0 00-.23.03l-.04-.1a.63.63 0 01.3-.03c.18.02.28.12.25.31l-.08.6zm8.68-.12l-.12.02-.02-.1a.35.35 0 01-.24.15c-.13.02-.28-.02-.31-.23-.03-.19.11-.29.28-.32.08 0 .16 0 .22.02l-.02-.1c-.02-.12-.09-.18-.21-.16a.45.45 0 00-.22.1l-.06-.09c.07-.05.16-.1.27-.11.19-.03.31.03.34.23l.09.59zm-8.77-.1l.02-.17a.4.4 0 00-.2-.08c-.13-.02-.21.03-.23.13-.02.13.04.2.15.2.1.02.2-.02.26-.08zm-.79.1l-.12-.03.14-.84.12.02-.14.84zm9.4-.2l-.02-.16a.42.42 0 00-.22-.02c-.13.02-.2.1-.18.2.02.12.1.17.2.15a.3.3 0 00.23-.16zm-9.63-.6l-.2-.05-.1.55c-.02.07 0 .1.06.12a.3.3 0 00.12 0l-.02.1a.4.4 0 01-.16 0c-.1-.02-.15-.08-.13-.22l.1-.57-.1-.02.02-.1.1.02.05-.26.13-.05-.06.33.21.04-.02.1zm10.61.2l.01.06-.56.1c.04.18.15.28.29.25.1-.02.15-.06.21-.12l.08.08a.51.51 0 01-.29.15c-.15.03-.36-.05-.42-.38-.05-.27.07-.46.27-.5.22-.04.37.11.41.35zm-4.89.48c0-.16-.08-.28-.23-.27-.13 0-.22.09-.23.28h.46zm1.77-.1c-.02-.16-.1-.27-.25-.25-.12 0-.2.1-.2.3l.45-.04zm-8.14-.17c-.04.16-.2.2-.34.17a.47.47 0 01-.27-.16l.09-.08c.05.08.12.13.2.14.12.03.19-.01.2-.1.02-.06-.02-.1-.16-.2-.15-.1-.21-.18-.18-.3.02-.14.15-.2.3-.17.12.03.2.08.25.15l-.08.07a.3.3 0 00-.2-.12c-.09-.02-.15.02-.16.08-.01.07.02.1.15.2.15.1.23.17.2.32zm11.76-.63l-.2.05.1.54c.02.08.05.1.11.09a.28.28 0 00.12-.05l.01.1a.38.38 0 01-.15.06c-.1.02-.17-.02-.2-.15l-.11-.57-.1.02-.03-.1.1-.02-.05-.26.1-.09.08.33.2-.05.02.1zm-9.14.75c.01-.16-.05-.29-.2-.3-.12-.02-.22.06-.25.25l.45.05zm10.18-.21l-.12.03-.12-.49c-.04-.18-.12-.25-.26-.21-.11.02-.18.12-.14.3l.11.5-.12.02-.25-1.09.1-.1.1.43c.03-.08.1-.15.2-.17.18-.04.32.03.38.27l.12.5zm-13.64.14l-.12-.03.19-.83.12.02-.19.84zm-.1-.9l-.07.11a.24.24 0 00-.11-.06c-.12-.03-.2.05-.25.2l-.11.5-.12-.03.2-.83.12.02-.03.1c.06-.05.15-.08.24-.06.06.01.1.03.12.05zm12.09.62c-.04-.16-.13-.26-.28-.24-.13.03-.2.13-.18.32l.46-.08zm2.47-.53c.08.28-.04.48-.24.54-.2.05-.4-.06-.48-.34-.07-.28.05-.47.25-.53.2-.05.4.05.47.33zm-15.2-.25l-.45.77-.1-.04v-.59-.12c0 .03-.04.08-.05.1l-.3.52-.11-.03.01-.89.12.04-.02.58-.01.12.06-.1.3-.51.1.03v.71l.05-.11.28-.51.12.03zm15.08.29c-.05-.22-.18-.3-.33-.26-.14.03-.2.17-.15.39.06.21.19.3.33.26.14-.03.21-.17.15-.4zm.57.28l-.12.04-.31-1.08.1-.1.33 1.14zm-16.58-1l-.32-.1-.31.97-.12-.04.3-.97-.31-.1.03-.12.76.24-.03.11zm3.6.75c-.01.04-.06.07-.1.07a.09.09 0 11.1-.07zm14.15-.96c.07.21-.04.38-.25.45l-.27.1.15.42-.12.04-.37-1.09.4-.13c.2-.07.39-.01.46.2zm-19.42.74l-.11-.04.03-.1a.28.28 0 01-.26.03c-.17-.06-.25-.2-.16-.43l.18-.49.11.04-.17.47c-.06.17-.03.27.1.32.11.04.22 0 .29-.18l.17-.47.11.04-.29.8zm3.6-.1a.09.09 0 01-.17-.04.09.09 0 01.11-.07c.05.01.08.06.07.1zm17.2-1.23l.03 1.24-.12.04v-.33l-.6-.68.12-.04.42.5.06.07v-.1l-.04-.65.12-.05zm-.8.31l.02.13c-.04 0-.08 0-.13.02-.11.04-.14.15-.08.3l.17.47-.12.05-.3-.8.12-.05.04.1a.25.25 0 01.16-.19l.13-.03zm-.7.32c-.04-.14-.15-.19-.3-.14l-.28.1.15.43.26-.09c.17-.05.22-.15.17-.3zm-20.18.37l-.1-.04.03-.1a.35.35 0 01-.3.02c-.12-.05-.22-.17-.15-.36.08-.18.25-.2.41-.13.08.03.14.08.18.12l.04-.1c.05-.1.01-.19-.1-.24a.45.45 0 00-.24-.02l-.01-.11c.09-.01.19 0 .3.04.16.07.24.19.17.37l-.23.55zm-.03-.24l.06-.16a.42.42 0 00-.18-.12c-.12-.05-.21-.02-.25.08-.05.11 0 .2.1.23.1.04.2.02.27-.03zm-.78-.09l-.11-.05.04-.1a.34.34 0 01-.28.02c-.16-.07-.23-.24-.11-.52.12-.28.31-.36.48-.3.1.05.14.12.17.2l.14-.32.14-.01-.47 1.08zm23.54-.19l-.1.05-.05-.1a.34.34 0 01-.19.22c-.16.06-.33 0-.45-.28s-.05-.48.12-.55a.3.3 0 01.26.01l-.14-.33.09-.1.46 1.08zm-.2-.14l-.16-.4a.28.28 0 00-.26-.02c-.13.05-.15.2-.06.4s.2.27.33.22c.08-.04.13-.11.16-.2zm-23.37.09l.17-.39a.28.28 0 00-.16-.21c-.13-.06-.24.03-.33.24-.09.2-.06.33.07.38.08.04.17.02.25-.02zm24.38-.32l-.11.05-.04-.1a.35.35 0 01-.2.23c-.11.06-.27.05-.36-.13-.08-.18.03-.32.18-.39a.47.47 0 01.22-.05l-.05-.09c-.05-.11-.13-.14-.24-.09a.45.45 0 00-.19.16l-.08-.07a.6.6 0 01.23-.19c.17-.07.3-.05.39.13l.25.54zm-25.18.2l-.11-.06.04-.1a.35.35 0 01-.3 0c-.11-.05-.21-.17-.12-.36.08-.17.26-.18.4-.1.09.03.15.08.18.13l.04-.1c.06-.1.03-.19-.08-.24a.45.45 0 00-.24-.04v-.11a.6.6 0 01.29.06c.16.08.24.2.15.38l-.25.53zm24.98-.34l-.07-.16c-.06 0-.13 0-.22.05-.12.05-.16.14-.11.24.05.11.14.13.23.1a.3.3 0 00.17-.23zm-25 .1l.07-.16a.43.43 0 00-.18-.14c-.11-.06-.2-.03-.25.06-.05.12-.02.2.08.24.1.05.2.03.28 0zm25.55-.13l-.1.05-.38-.77.1-.05.38.77zm-26.33-.02l-.11-.05.38-.77.11.06-.38.76zm27.16-.41l-.1.05-.24-.44c-.08-.16-.18-.2-.3-.14-.1.05-.15.17-.06.33l.23.45-.11.05-.4-.75.11-.06.05.09a.28.28 0 01.15-.22c.16-.08.32-.04.43.18l.24.46zm-27.52.23l-.11-.06.51-1H14l-.54 1.06zm-.36-.19l-.1-.06.04-.09a.35.35 0 01-.28-.01c-.15-.09-.2-.27-.06-.53.14-.27.34-.34.5-.25.1.05.14.13.16.22l.17-.32h.14l-.57 1.04zm0-.24l.2-.38a.28.28 0 00-.14-.22c-.13-.07-.25 0-.36.2-.1.2-.08.33.04.4.08.04.17.03.25 0zm-.28-.89l-.95.79-.1-.06.25-.21.17-.89.1.07-.12.64-.02.09.07-.06.49-.43.11.06zm28.84-.47l-.47.27.2.33.26-.16.06.1-.27.16.27.46-.11.06-.58-.99.58-.33.06.1zm2.23-18.54A18.23 18.23 0 0125.8 44.95a18.1 18.1 0 01-16-12.03l-7.37 2.6a25.9 25.9 0 0038.8 12.94 26.12 26.12 0 0010-12.66l-7.34-2.69zm-4.2 19.53c.02.04 0 .1-.04.12-.04.02-.1 0-.11-.04-.03-.04 0-.1.04-.12.04-.02.1 0 .11.04zm-25.36.01a.09.09 0 01-.11.04.09.09 0 01-.05-.11.09.09 0 01.12-.04c.05.02.06.07.04.11zm28.42-.47l-.1.06-.06-.09a.35.35 0 01-.16.25c-.12.07-.27.09-.38-.09-.1-.16 0-.32.14-.4a.45.45 0 01.2-.07l-.05-.1c-.07-.1-.15-.12-.26-.05a.46.46 0 00-.16.17l-.1-.06a.6.6 0 01.22-.2c.15-.1.3-.1.4.07l.31.5zm-.21-.11l-.1-.15a.4.4 0 00-.2.07c-.11.07-.15.16-.09.25.07.1.16.12.24.06a.3.3 0 00.15-.23zm-30.34-.54a.23.23 0 00-.07-.07c-.05-.03-.09-.03-.13.03l-.06.1.14.1-.05.08-.15-.08-.4.64-.1-.07.4-.64-.1-.06.05-.09.1.07.06-.1c.08-.14.19-.14.29-.08l.08.07-.06.1zm-.8.2a.42.42 0 01-.04.06l-.48-.31c-.1.16-.08.3.03.38.09.05.15.06.25.06v.1a.5.5 0 01-.31-.08c-.14-.08-.23-.28-.05-.57.15-.22.37-.28.54-.17.19.12.19.33.06.54zm31.9-.93l.29.84-.1.06-.44-.4a1.42 1.42 0 01-.1-.08l.05.11.2.57-.1.06-.66-.59.1-.07.43.4.09.08a1.8 1.8 0 01-.05-.11l-.18-.56.09-.06.44.39.09.08-.05-.11-.2-.54.1-.07zm-31.98.85c.08-.15.08-.28-.04-.36-.1-.07-.23-.05-.35.1l.39.26zm-.74-.27c-.1.15-.3.18-.5.05a.54.54 0 01-.22-.35l.12-.03c.03.12.08.22.18.29.12.08.24.08.3-.02.07-.09.05-.18-.08-.36-.15-.2-.17-.32-.08-.46.1-.15.29-.15.46-.03.13.08.18.18.22.3l-.13.03a.4.4 0 00-.16-.24c-.13-.1-.23-.07-.28 0-.05.09-.05.15.1.35.15.22.16.34.07.47zm33.27-.96l.04.12a.23.23 0 00-.12.04c-.1.07-.1.19 0 .32l.29.41-.1.07-.5-.7.1-.07.06.09c0-.08.03-.17.1-.22a.3.3 0 01.13-.06zm-34.59.4l-.1-.08.07-.08a.35.35 0 01-.29-.07c-.1-.08-.18-.22-.05-.38.12-.15.3-.12.43-.02.06.05.11.12.14.17l.06-.08c.07-.1.06-.19-.04-.26a.44.44 0 00-.22-.1l.02-.1c.09.01.19.05.27.12.15.11.2.24.07.4l-.36.47zm36.06-.45l-.1.08-.06-.09c-.01.1-.04.19-.14.26-.1.08-.26.12-.38-.05-.12-.15-.04-.31.09-.41a.45.45 0 01.2-.1l-.06-.08c-.08-.1-.17-.1-.27-.03a.45.45 0 00-.14.2l-.1-.06c.04-.08.1-.16.19-.23.14-.11.28-.12.4.04l.37.47zm-36.03.2l.1-.13a.42.42 0 00-.14-.18c-.1-.07-.2-.07-.26.02-.08.1-.05.18.03.25a.3.3 0 00.27.04zm35.8-.3l-.1-.13a.42.42 0 00-.2.1c-.1.07-.13.17-.06.25.08.1.16.1.25.04a.3.3 0 00.11-.25zm-35.28-.24l-.08-.07-.03-.23-.23.04-.08-.07.31-.08.11.08v.33zM8.24 50l-.1-.08.32-.38c.12-.14.12-.25.02-.33-.1-.08-.21-.08-.33.06l-.32.39-.1-.08.72-.86.14.03-.28.33a.28.28 0 01.26.06c.13.12.16.27 0 .46l-.33.4zm37.96-.96c.2.24.17.48-.01.63-.22.18-.52.1-.74-.15-.21-.25-.23-.57-.02-.75.12-.1.25-.13.4-.1l-.03.13c-.12-.03-.2-.02-.3.06-.15.13-.13.37.05.58.18.21.42.27.56.14.15-.12.15-.28 0-.45l-.16.13-.07-.1.25-.2.07.08zm-38.15-.18l-.16-.14-.37.42c-.05.05-.05.09 0 .13a.3.3 0 00.1.06l-.07.07a.4.4 0 01-.14-.08c-.08-.07-.09-.14 0-.25l.39-.43-.08-.07.07-.08.08.07.17-.2.14.03-.22.25.16.14-.07.08zm38.85-.42c.2.21.18.44.02.58-.15.14-.37.14-.57-.08-.2-.21-.17-.44-.02-.58.16-.14.37-.14.57.08zm-.09.08c-.15-.16-.3-.18-.41-.08-.11.1-.1.25.04.42.15.16.3.18.42.08.1-.1.1-.25-.05-.42zm-39.38.19a.33.33 0 01-.05.05l-.42-.4c-.11.15-.13.3-.03.39.08.07.14.08.23.1l-.02.1a.5.5 0 01-.29-.13c-.11-.11-.18-.32.05-.57.19-.2.41-.22.56-.08.17.15.13.36-.03.54zm40.33-.6c.18.18.18.35-.04.58l-.1-.04c.2-.2.2-.3.06-.45l-.03-.03c0 .09-.01.18-.1.26-.12.12-.3.12-.52-.1-.2-.21-.21-.42-.08-.55a.3.3 0 01.25-.08l-.07-.07.09-.09.54.56zm-40.4.5c.11-.13.14-.26.03-.37-.1-.08-.22-.07-.36.06l.34.3zm-.92-.2l-.08-.09.07-.07a.35.35 0 01-.28-.1c-.1-.1-.14-.24 0-.39.14-.14.3-.08.43.03.06.07.1.13.11.19l.08-.07c.08-.1.08-.18 0-.27a.44.44 0 00-.22-.12l.04-.1c.08.03.17.08.25.15.13.13.16.27.02.41l-.42.43zm41.14-.32l-.3-.3a.28.28 0 00-.25.06c-.1.1-.07.24.09.4.15.16.28.18.38.09.07-.07.09-.15.08-.25zm-41.08.08l.13-.12a.42.42 0 00-.13-.19c-.09-.09-.18-.1-.26-.02-.09.09-.08.18 0 .25.08.08.18.1.26.08zm41.6-.3l-.09.1-.8-.8.04-.13.85.83zM5.82 47.8l-.09-.08.61-.6.09.08-.61.6zm42.59-.89l.05.05-.4.41c.14.12.29.14.38.04a.37.37 0 00.1-.23l.1.02a.5.5 0 01-.13.29c-.1.11-.32.17-.56-.06-.2-.19-.22-.41-.08-.56.15-.16.36-.13.54.04zm-42.2.08l-.1.07a.24.24 0 00-.07-.12c-.08-.09-.2-.07-.32.04l-.36.34-.09-.09.63-.58.08.09-.08.07c.08-.02.18 0 .24.07l.07.11zm42.1-.02c-.13-.1-.26-.13-.37-.02-.08.09-.08.21.05.36l.32-.34zm-41.7.09a.09.09 0 01-.11-.13.09.09 0 01.12 0c.03.04.03.1 0 .13zm-1.16-.3a.3.3 0 01-.05.04l-.38-.42c-.13.13-.16.27-.06.37.06.08.12.1.21.13l-.02.1a.51.51 0 01-.28-.17c-.1-.11-.15-.33.1-.56.2-.18.43-.18.57-.02.15.16.1.37-.09.53zm43.87-.18l-.08.09-.08-.07c0 .09 0 .19-.08.27-.11.13-.3.14-.52-.06-.23-.2-.25-.4-.13-.54a.3.3 0 01.24-.1l-.26-.24.03-.14.88.79zm-.24-.05l-.32-.29a.28.28 0 00-.25.1c-.1.1-.05.23.12.38.16.15.3.16.4.06.05-.07.07-.16.05-.25zm-43.68.13c.12-.12.16-.25.06-.37-.09-.09-.21-.1-.37.02l.31.35zm-.9-.29l-.07-.09.38-.32c.14-.12.16-.22.07-.33-.07-.09-.2-.11-.34.01l-.38.32-.08-.1.66-.54.07.1-.08.06c.09-.01.18.02.25.1.12.14.11.3-.08.46l-.4.33zm45.41-.5l-.07.1-.08-.07c0 .1 0 .2-.08.28-.1.13-.3.15-.52-.04-.24-.2-.26-.4-.15-.55a.3.3 0 01.24-.1l-.27-.24.02-.14.91.77zm-.24-.04l-.32-.27a.28.28 0 00-.25.1c-.1.1-.04.24.13.38s.3.15.4.05c.05-.07.06-.16.04-.25zm-45.15-.61l-.13-.17-.44.35c-.06.05-.06.08-.02.13.03.04.05.06.1.08l-.1.06a.38.38 0 01-.12-.1c-.06-.09-.06-.17.05-.25l.45-.36-.06-.09.08-.06.06.08.2-.16.14.05-.26.2.13.17-.08.07zm45.91 0l-.08.1-.9-.7.08-.1.9.7zm-46.18-.5l-.12.04a.24.24 0 00-.05-.12c-.07-.1-.2-.09-.32 0l-.4.31-.07-.1.68-.51.07.1-.08.06c.08-.01.17.02.22.1.04.04.06.08.07.11zm46.25-1.02l.56.69-.07.09-.55-.21a1.86 1.86 0 01-.11-.06l.08.1.37.46-.07.09-.82-.33.07-.1.54.23.11.05-.08-.1-.36-.45.06-.09.55.21.11.05-.08-.09-.38-.44.07-.1zm-47.37.94l-.07-.1.08-.05a.36.36 0 01-.25-.15c-.08-.1-.1-.26.06-.38.15-.12.31-.04.41.1.05.07.08.15.09.2l.08-.05c.1-.08.12-.16.04-.27a.44.44 0 00-.18-.15l.05-.1c.08.05.16.11.22.2.11.15.11.29-.05.4l-.48.36zm.1-.22l.14-.1a.41.41 0 00-.1-.2c-.06-.1-.16-.13-.24-.07-.1.07-.11.16-.05.25a.3.3 0 00.25.12zm48.06-1.16l.05.04-.32.47c.16.1.3.09.38-.02a.38.38 0 00.07-.25h.1a.5.5 0 01-.09.31c-.09.13-.29.23-.56.04-.23-.16-.28-.38-.17-.54.13-.19.34-.19.54-.05zm-48.27.47c-.25.17-.46.14-.57-.01a.3.3 0 01-.04-.27l-.28.2-.12-.07.96-.65.07.1-.08.06c.08.01.18.04.24.14.1.14.06.33-.18.5zm-.07-.1c.17-.12.22-.25.15-.36-.06-.08-.14-.11-.23-.12l-.36.24a.28.28 0 00.03.26c.08.12.22.1.4-.02zm48.25-.3c-.14-.08-.28-.09-.36.04-.07.1-.05.23.1.35l.26-.38zm.13-.87l.1.1a.25.25 0 00-.1.09c-.07.1-.03.2.11.3l.42.27-.06.1-.72-.47.06-.1.1.06a.25.25 0 010-.25.32.32 0 01.1-.1zm-49.44.37l-.06-.1.42-.27c.16-.1.2-.2.13-.3-.07-.1-.18-.15-.34-.05l-.43.26-.06-.1.73-.45.06.1-.09.06c.09 0 .17.05.23.14.1.15.06.3-.14.44l-.45.27zm50.57-.58l-.06.1-.1-.05c.03.09.04.19-.02.29-.1.14-.27.2-.53.03-.26-.15-.32-.36-.23-.51a.3.3 0 01.23-.15l-.31-.19v-.14l1.02.62zm-.24 0l-.37-.22a.28.28 0 00-.23.13c-.07.12 0 .24.19.36.18.11.32.1.4-.01.04-.08.04-.17 0-.26zm.7-.79l-.06.1-.1-.04c.03.08.04.18-.01.28-.09.15-.27.2-.53.05-.26-.15-.33-.35-.24-.5a.3.3 0 01.22-.16l-.32-.18v-.14l1.04.6zm-50.75.2l-.85.22-.06-.1.43-.42.09-.08a1 1 0 01-.12.04l-.57.14-.06-.1.63-.6.07.1-.43.4-.1.08.13-.04.56-.14.06.1-.42.4-.1.09.13-.04.55-.16.06.1zm50.5-.2l-.37-.2a.28.28 0 00-.22.13c-.07.12 0 .24.2.36.18.1.32.09.39-.03.04-.08.04-.17 0-.26zM53 40.4c.26.14.32.36.23.55-.1.18-.31.25-.57.11-.26-.13-.32-.35-.22-.54.1-.18.3-.25.56-.12zm-.05.11c-.2-.1-.35-.06-.42.07s-.01.27.19.37c.2.1.34.08.41-.06.07-.13.02-.27-.18-.38zm-51.68.33a.4.4 0 01-.06.02l-.27-.5c-.15.1-.22.22-.15.35.04.08.1.12.18.17l-.05.09a.51.51 0 01-.23-.23c-.07-.14-.06-.36.24-.51.24-.13.46-.07.55.1.1.2 0 .4-.21.5zm-.03-.12c.15-.08.22-.2.15-.33-.06-.12-.18-.15-.36-.08l.21.41zm52.54-.91l-.05.1-.45-.21c-.17-.08-.27-.06-.33.06-.05.1-.02.23.15.3l.44.23-.05.1-.77-.37.06-.1.09.04a.28.28 0 010-.27c.07-.16.22-.22.44-.11l.47.23zM.18 39.76l.54-.58.14-.14-.8.38L0 39.3l1.03-.49.06.13-.5.53-.17.17.24-.02.73-.05.06.13-1.03.49-.05-.11.8-.39-.2.02-.79.04zM39.35 17.6l-4.15-3.05-12.03 16.37-2.98-2.19-5.74 2.17 9.77 7.18.05.04L39.35 17.6zm13.51 10.58l.02-.14.25.02.15.02-.11-.06-.3-.17.32-.1.12-.04-.15-.01-.25-.03.01-.13.69.06-.02.14-.32.1-.12.04.11.06.3.17-.01.13-.69-.06zm.62-.71l.02-.2-.54-.05v-.14l.56.06.02-.2.13.01-.05.53-.14-.01zm-7.98-2.55l7.97-.36.06 1.32-7.97.37-.06-1.33zM5.1 19.98c.27-.65.84-.76 1.44-.61l1.28.3c.97.24 1.34 1.13 1.06 2.3l-.48 2-7.76-1.86.49-2.03c.28-1.17 1-1.73 1.98-1.5l.97.24c.56.14 1.09.52 1.01 1.16zm39.24-.45l7.7-2.1.35 1.28-4.32 2.91 4.76-1.3.32 1.17-7.7 2.1-.33-1.21 4.54-3.05-5 1.36-.32-1.16zM5.42 21.09l-.18.77 2.36.56.18-.76c.1-.37-.04-.64-.45-.74l-1.16-.28c-.41-.1-.66.09-.75.45zm-1.27.5l.18-.72c.09-.36-.05-.64-.46-.74l-.9-.22c-.4-.1-.65.1-.74.46l-.17.72 2.1.5zm5.24-5.53l-.7 1.28 1.42 1.1-.61 1.12-6.29-5.13.8-1.46 7.72 2.5-.64 1.19-1.7-.6zm35.38.48L44 15.29l-1.67.67-.66-1.1 7.6-2.85.86 1.43-6.05 5.41-.7-1.15 1.38-1.16zm-36.42-.86l-3.38-1.21 2.84 2.19.54-.98zm37.27.14l2.74-2.3-3.32 1.35.58.95zm-31.33-3.04l-2.98-1.5-.46.48 2.27 2.22-.92.94L6.5 9.36l1.44-1.48c.84-.87 1.74-1.1 2.6-.26l1.02 1c.55.52.67 1.09.46 1.65l3.22 1.54-.94.97zm31.32-2.92l-3.18 3.33c-.84.87-1.74.67-2.62-.17l-1.47-1.4 5.51-5.78 1.48 1.41c.87.84 1.12 1.74.28 2.6zm-1.12-1.8L44 7.6l-3.9 4.08.48.47c.32.3.64.39 1.04-.02l2.9-3.04c.39-.4.28-.73-.03-1.03zm-34.46 2.9l.48-.5c.3-.3.4-.63 0-1.03l-.75-.72c-.41-.4-.73-.3-1.03.01l-.49.5 1.79 1.74zm25.72-2.2l-.67-.33.51-3.87-2.09 4.41-1.11-.53 3.42-7.2 1.14.53-.6 4.85 3.39-3.52 1.17.56-3.42 7.2-1.16-.54 2.1-4.41-2.68 2.84zM13.52 3.4l.08-.05c1.05-.6 1.98-.6 2.58.45l2.4 4.14c.62 1.05.17 1.86-.88 2.47l-.08.05c-1.04.6-1.97.59-2.58-.46l-2.4-4.14c-.62-1.05-.16-1.86.88-2.46zm3.56 6.03c.37-.22.55-.5.26-1l-2.2-3.79c-.28-.49-.62-.48-1-.26-.37.22-.54.5-.26 1l2.2 3.78c.29.5.62.48 1 .27zm5.76-7.62l1.13 4.47c.3 1.17-.37 1.83-1.54 2.12l-1.98.5-1.94-7.74 1.98-.5c1.17-.3 2.06-.02 2.35 1.15zm7.52 4.54l-1.44-.2-.53 1.73-1.26-.17L29.67 0l1.64.22.43 8.11-1.33-.18-.05-1.8zM20.73 1.8l-.66.17 1.38 5.48.65-.16c.42-.11.67-.34.53-.89l-1.02-4.07c-.14-.55-.46-.63-.88-.53zm9.6 3.44l-.07-3.58-1.03 3.43 1.1.15z" fill-rule="nonzero"/></svg>