<svg xmlns="http://www.w3.org/2000/svg" viewBox="0 0 448 512"><path d="M224 141a115 115 0 100 229 115 115 0 000-229zm0 190a75 75 0 110-150 75 75 0 010 150zm147-195a27 27 0 11-54 0 27 27 0 0154 0zm76 28c-2-36-10-68-37-94-26-27-58-35-93-37-37-2-148-2-185 0-36 2-68 10-94 36S3 129 1 164c-2 37-2 148 0 185 2 36 10 68 37 94s58 35 94 36c37 3 148 3 185 0 35-1 67-9 93-36 27-26 35-58 37-94 2-37 2-147 0-184zm-48 224c-8 20-23 35-43 43-29 11-99 9-132 9s-103 2-132-9c-20-8-35-23-43-43-11-29-9-99-9-132s-2-103 9-132c8-20 23-35 43-43 30-11 100-9 132-9s103-2 132 9c20 8 35 23 43 43 12 29 9 99 9 132s3 103-9 132z"/></svg>