<svg xmlns="http://www.w3.org/2000/svg" viewBox="0 0 169 57"><path d="M161.87 57H7.02a7.34 7.34 0 01-7.33-7.32V7.32A7.34 7.34 0 017.02 0h154.85a7.34 7.34 0 017.33 7.33v42.36a7.34 7.34 0 01-7.33 7.33zM7.02.77A6.57 6.57 0 00.46 7.32v42.36a6.57 6.57 0 006.56 6.56h154.85a6.57 6.57 0 006.56-6.56V7.32a6.57 6.57 0 00-6.56-6.56H7.02zm69.58 5.6h-.87v45.32h.87V6.36zm-20.75 39.7s.58 1.21.25 1.65c-1.31.04-2.2 0-4.14.2-1.8.18-2.96.3-3.1 1.84 0 0-.39-.38-.35-1.36.04-.97 1.65-2.05 3.34-2 0 0 2.12.05 2.35-.08.51-.27-.78-2.73-1-3.18-1.87-3.75-1.82-4.96-1.9-5.16 0 0-5.25-.99-6.54-4.56 4.17 3.54 7.62 3.51 7.62 3.51a63.2 63.2 0 003.47 9.15zm-27.2-10.8S25.79 44 20.79 47.23c0 0 3.05-.44 3.98-.06.95.39 1.91 1.03 1 2.5 0 0 1.81-1 1.3-2.5-.39-1.19-2.16-1.28-2.16-1.28s-.52-.23-.22-.98c.3-.76 2.21-3.28 2.52-3.74.3-.46 2.78-4.2 2.88-4.42 0 0 2.19.31 3.23-1.77 1.1-2.17-1.23-4.26-1.23-4.26s1.02 2.33-.16 3.47c-1.4 1.35-3.28 1.07-3.28 1.07zm-2.99-.18s-.8-1.88-.2-3.54c.4-1.07 1.4-1.99 3.41-2.49 0 0-3.5 3.19-.93 5.95 0 0-1.84 1.94-2.54 3.6a79.4 79.4 0 01-2.72 5.95 6.56 6.56 0 01-3.22 2.75c-2.22.2-4.64.57-4.8 2.28 0 0-.43-.43-.39-1.51.04-1.08 1.83-2.29 3.7-2.23 1.88.07 3.56-.4 4.43-2.67.88-2.26 2.8-7.7 3.26-8.1zM64.81 9.6l-.61.16h-.03c1.58 1.45 1.49 3.76 1.49 3.76.12 3.53-3.7 7.6-5.92 12.93 5 .63 8.48 3.73 8.48 7.1 0 4.75-2.9 6.41-5.53 6.45a5.77 5.77 0 01-3.17-.86c-1.4-.83-2.57-2.37-2.57-5.38 0-2.95.68-4.78 1.07-5.82H58c-1.2.03-2.38.18-3.4.4l-1.35.4a5.25 5.25 0 012.59 3.37c.24 1.2.13 2.71-.47 4.64-.12 1.89.7 4.69 1.34 6.77l.71 1.9c.38.85.97 1.09.97 1.09s1.47.21 1.88 1.1c.55 1.18-.4 1.78-.4 1.78.34-1.42-.88-1.58-1.6-1.68l-.07-.01c-.7-.1-1.18-.04-1.18-.04.1-.48-.83-3.05-.76-2.88 0 0-1.18-3.39-1.68-4.88-.52-1.53-.87-3.71-.87-3.71s3.54-5.9-4.38-8.56c0 0 .56-.06.99 0 .9-.35 2.05-.6 2.05-.6a20.95 20.95 0 016.35-.66c2.28-4.87 6.16-9.91 6.16-12.88 0-1.92-1.32-3.21-1.32-3.21l-.22.72s-1.07-2.45-1.86-3.07l.02.02s2.44.97 3.3 1.65zm47.68 35.52h2.15v3.27a5.3 5.3 0 01-2.02.33c-1.14 0-2.91-.58-2.91-3.19 0-1.5.84-3.12 3.16-3.12.72 0 1.23.14 1.6.25l-.09 1.2c-.3-.15-.77-.35-1.4-.35-1.5 0-1.8 1.39-1.8 2.08 0 1.14.52 2.03 1.61 2.03.21 0 .38-.03.5-.1v-1.37h-.8v-1.03zm42.07-1.06h.79v-.93l1.34-.43v1.36h.9v.97h-.9v2.09c0 .44.2.57.46.57.2 0 .32-.04.46-.1v.97c-.14.05-.52.12-.96.12-.72 0-1.34-.35-1.34-1.34v-2.31h-.75v-.97zm-52.9 1.15c-.38-.15-.72-.25-1.12-.25-.35 0-.51.18-.51.33 0 .28.2.38.95.66.47.17.95.47.95 1.33 0 1-.76 1.4-1.68 1.4a4.7 4.7 0 01-1.49-.22l.04-1.06c.33.2.75.31 1.13.31.65 0 .7-.23.7-.43 0-.2-.37-.28-.96-.53-.48-.2-.95-.58-.95-1.4 0-.48.35-1.36 1.7-1.36.57 0 1.04.1 1.27.19l-.04 1.03zM95.7 46.7h-2.69c0 .54.36 1.04 1.13 1.04.47 0 .94-.18 1.29-.36l.02 1.04a4.3 4.3 0 01-1.44.26c-1.6 0-2.3-.97-2.3-2.36 0-1.22.71-2.33 2.01-2.33.41 0 1.98 0 1.98 2.38v.33zm33.32 0h-2.68c0 .54.35 1.04 1.13 1.04.47 0 .94-.18 1.28-.36l.03 1.04a4.3 4.3 0 01-1.44.26c-1.6 0-2.3-.97-2.3-2.36 0-1.22.7-2.33 2-2.33.42 0 1.98 0 1.98 2.38v.33zm20.22 0h-2.68c0 .54.35 1.04 1.13 1.04.47 0 .94-.18 1.28-.36l.03 1.04a4.3 4.3 0 01-1.44.26c-1.6 0-2.3-.97-2.3-2.36 0-1.22.71-2.33 2.01-2.33.41 0 1.97 0 1.97 2.38v.33zM117.64 44c1.4 0 2.14.96 2.14 2.32 0 1.38-.74 2.36-2.14 2.36-1.4 0-2.14-.98-2.14-2.36 0-1.36.74-2.33 2.14-2.33zm-14.98-1.94h1.38v2.67h.02c.16-.5.67-.74 1.16-.74 1 0 1.34.74 1.34 1.64v2.98h-1.38v-2.8c0-.57-.25-.72-.53-.72-.45 0-.6.39-.6.97v2.55h-1.39v-6.55zm-4.72 0h-1.38v6.55h1.38v-6.55zm31.9 2.95c0-.43 0-.71-.03-.95h1.26l.03.82h.02c.28-.49.47-.89 1.27-.89h.2v1.28a1.81 1.81 0 00-.47-.06c-.8 0-.9.7-.9 1.37v2.03h-1.38v-3.6zm-9.66-.95h1.43l.84 3.24h.02l.83-3.24h1.34l-1.42 4.55h-1.63l-1.41-4.55zm15.57 1.75c0-.57-.25-.72-.53-.72-.44 0-.6.39-.6.97v2.55h-1.38v-3.6c0-.43 0-.71-.04-.95h1.26c.02.2.04.46.04.76h.02c.2-.5.55-.83 1.28-.83 1 0 1.33.74 1.33 1.64v2.98h-1.38v-2.8zm16.83 0c0-.57-.25-.72-.53-.72-.45 0-.6.39-.6.97v2.55h-1.38v-3.6c0-.43-.01-.71-.04-.95h1.26c.01.2.03.46.03.76h.02c.2-.5.56-.83 1.28-.83 1 0 1.34.74 1.34 1.64v2.98h-1.38v-2.8zm-9.54 0c0-.52-.22-.72-.53-.72-.4 0-.56.3-.56.64v2.88h-1.38v-2.8c0-.58-.26-.72-.49-.72-.45 0-.6.4-.6.97v2.55h-1.38v-3.6c0-.43-.01-.71-.04-.95h1.26c.02.2.03.46.03.76h.02c.21-.5.56-.83 1.28-.83.66 0 1 .3 1.18.76.2-.42.52-.76 1.25-.76 1 0 1.34.74 1.34 1.64v2.98h-1.38v-2.8zm-55.18-1.93h-.02l-.76 4.73H85.4l-1.22-6.1h1.38l.73 4.34h.02l.73-4.33h1.67l.75 4.33h.01l.79-4.33h1.26l-1.2 6.1h-1.68l-.78-4.74zm29.78 3.86c.48 0 .7-.52.7-1.42 0-.89-.22-1.38-.7-1.38s-.7.5-.7 1.38c0 .9.22 1.42.7 1.42zm-67.81-1.32s.95-.52 2.07-.41c.69.06 1.74-.03 1.74-.03-.56 0-1.44-1.15-2.77-.93-1.16.2-1.04 1.37-1.04 1.37zm77.94-.47c0-.58-.14-1.12-.71-1.12-.7 0-.7.87-.7 1.12h1.41zm20.23 0c0-.58-.15-1.12-.72-1.12-.7 0-.7.87-.7 1.12H148zm-53.55 0c0-.58-.15-1.12-.72-1.12-.7 0-.7.87-.7 1.12h1.42zm-78.77-.06s1.06-.58 2.3-.46c.76.08 2.24-.47 2.24-.47-.62-.01-2.09-.75-3.38-.58-1.3.16-1.16 1.5-1.16 1.5zm31.95-8.68s.43.29.85.52c-.35.83-.46 1.36-.52 1.54-.15.39-.62 1.99-.85 2.56-.22.56.16.73.16.73s1.34.07 1.63.96c.38 1.13-.98 1.87-.98 1.87.69-1.1-.04-1.58-.74-1.86-.7-.29-2.78.03-2.78.03 2.17-1.18 2.89-5.53 3.23-6.35zm-2.13 4.34a4.47 4.47 0 01-2.47 2.16c-1.5-.03-3.32.34-3.44 1.62 0 0-.32-.32-.3-1.13.04-.81 1.15-1.7 2.8-1.6 1.4.07 2.3-.51 2.91-2.06.42-1.03-.02-3.25.53-4.66 0 0 .76.58 1.1.86 0 0 .02 0-.14.38-.52 1.24-.27 3.04-1 4.43zm-5.14 1.01s-.1-1.01.87-1.13c.96-.12 2.06.43 2.53.43 0 0-1.1.42-1.68.36a3.37 3.37 0 00-1.72.34zm86.58-3.36c-.21.76-.53 1.03-1.09 1.03-.17 0-.36-.02-.5-.05l.04-.67c.11.06.25.1.4.1.21 0 .37-.1.5-.56l.17-.69-1.41-4.52h.77l1 3.63h.01l.93-3.63h.73l-1.55 5.36zm-38.47-4.54c0-.27-.03-.55-.04-.82h.71l.03.65h.01c.2-.34.53-.71 1.17-.71.92 0 1.54.75 1.54 2.29 0 1.53-.62 2.28-1.54 2.28-.5 0-.83-.2-1.13-.67h-.02v2.5h-.73v-5.52zm-57.4 2.64s1.06-.22 1.42-.49c0 0 .49.53 2.5.49h.35c2.24-.28 4.97-1.08 9.25-2.87l.47.77c-3.35 1.13-7.39 4.3-12.45 3.8-.36-.03-2.03-.36-2.37-.47l.84-1.23zm28.1-9.36a17.49 17.49 0 00-.96 6.25c.08 2.07 1.42 4.95 4.68 4.66a4.04 4.04 0 003.31-2.37c.64-1.3.6-2.65.6-2.65s.04-2.14-2.01-3.96c-1.13-1.03-2.86-1.82-5.61-1.93zm41.8 9.49c.32.2.67.33 1.04.33.56 0 .85-.29.85-.63 0-.3-.16-.51-.57-.7l-.49-.22c-.64-.28-.87-.57-.87-1.14 0-.73.57-1.3 1.43-1.3.36 0 .69.07.94.17l-.03.63c-.23-.11-.55-.2-.88-.2-.48 0-.73.26-.73.61 0 .36.26.56.75.75l.26.1c.55.23.89.6.89 1.14 0 .77-.42 1.39-1.44 1.39-.46 0-.88-.1-1.2-.27l.04-.66zm17.29.04l.03.82h-.7l-.03-.65h-.02c-.19.35-.52.72-1.17.72-.91 0-1.53-.76-1.53-2.3 0-1.53.62-2.28 1.53-2.28.5 0 .84.2 1.14.67h.02v-2.7h.73v5.72zm-30.94-4.4a2.05 2.05 0 00-1.04-.27c-.58 0-.95.4-.95.9 0 .4.15.65 1.02 1.15.95.54 1.26 1.08 1.26 1.78 0 .97-.6 1.72-1.77 1.72a3 3 0 01-1.27-.26v-.8c.34.22.8.4 1.16.4.69 0 1.08-.46 1.08-.96 0-.47-.12-.74-.94-1.24-1.1-.66-1.35-1.04-1.35-1.83 0-1 .77-1.52 1.7-1.52.4 0 .82.08 1.1.2v.74zm6.99.7c1.18 0 1.79.9 1.79 2.3s-.61 2.28-1.79 2.28c-1.18 0-1.8-.89-1.8-2.28 0-1.4.62-2.3 1.8-2.3zm11.65 0c1.18 0 1.79.9 1.79 2.3s-.61 2.28-1.8 2.28c-1.17 0-1.78-.89-1.78-2.28 0-1.4.6-2.3 1.79-2.3zm15.32-2.03h.73v2.71h.02c.3-.47.63-.67 1.13-.67.92 0 1.54.75 1.54 2.29 0 1.53-.62 2.28-1.54 2.28-.64 0-.97-.36-1.17-.71h-.01l-.03.65h-.7l.03-.82v-5.73zm-9.55 4.54c0 1.04.4 1.52 1.21 1.52.37 0 .77-.19 1.02-.37l.04.66c-.35.17-.8.26-1.25.26-1.18 0-1.8-.89-1.8-2.28 0-1.4.62-2.3 1.73-2.3 1 0 1.56.81 1.56 2.12v.4h-2.51zm-3.14-1.48l-.03-.96h.7l.03.7h.02c.23-.54.6-.76 1.26-.76v.72a1.33 1.33 0 00-.28-.02c-.56 0-.96.49-.96 1.46v2.35h-.74V34.8zm-11.65 0l-.03-.96h.7l.03.66h.02c.24-.5.61-.72 1.13-.72.78 0 1.3.44 1.3 1.42v3.1h-.74v-2.88c0-.7-.26-1.01-.73-1.01-.58 0-.94.4-.94 1.2v2.68h-.74V34.8zm-6.76 2.96c.67 0 .98-.58.98-1.7 0-1.11-.3-1.69-.98-1.69-.67 0-.98.58-.98 1.7 0 1.11.3 1.7.98 1.7zm26.37-3.39c-.68 0-.98.58-.98 1.7 0 1.11.3 1.69.98 1.69.67 0 .98-.58.98-1.7 0-1.11-.31-1.69-.98-1.69zm-10.6 3.39c.7 0 1.03-.58 1.03-1.7 0-1.11-.32-1.69-1.02-1.69s-1.03.58-1.03 1.7c0 1.11.33 1.69 1.03 1.69zm-11.64 0c.7 0 1.02-.58 1.02-1.7 0-1.11-.32-1.69-1.02-1.69s-1.02.58-1.02 1.7c0 1.11.32 1.69 1.02 1.69zm28.68 0c.67 0 .98-.58.98-1.7 0-1.11-.3-1.69-.98-1.69-.67 0-.98.58-.98 1.7 0 1.11.3 1.69.98 1.69zm-9.48-2.03c0-.93-.29-1.4-.88-1.4-.47 0-.88.36-.9 1.4h1.78zM28.2 17.58s.23.86.1 2.44c-.14 2.69-5.4 6.39-5.34 10.85.04 2.66 2 4.26 2 4.26s-.88-2.36-.48-4.7c.54-3.28 4.66-7 4.53-10.21-.08-1.9-.82-2.64-.82-2.64zm-14.52 5.4c4.78 3.5.77 5.13.77 5.13.94.4 1.7.13 2.1-.48.15-.23.3-.52.37-.74.13-.38.15-.68.15-.68 1.7 1.66 3.54 4.5 4.75 6-.36-1.46-.08-2.11-.2-2.25-1.44-1.73-1.92-2.35-2.86-3.4-2.85-3.15-5.08-3.59-5.08-3.59zm29.09 8.92c1.75-4.7 6.46-4.89 6.64-4.9-5.02-.98-6.3 1.56-6.6 3.34-4.28-.84-7.95-.92-7.95-.92 5.15.72 7.91 2.48 7.91 2.48zM61.8 14.22s-7.04-1.4-13.95.63c-6.9 2.03-5.94 5.64-6.01 7.65-.07 2.02-1.78 6.48-7.86 5.9 0 0 3.6 1.96 7.62-1.27 4.01-3.24 1.21-7.17 4.44-9.04 3.23-1.87 5.74-3.42 15.76-3.87zm-28.27 8.42a7.68 7.68 0 01-.1-2.54c.25-.64.46-1.26.6-1.86l.1.06.75.47a7.06 7.06 0 01-.82-2.28 5.45 5.45 0 00-1-2.11s.5 1.27.32 2.3c-.16 2.15-3.2 4.61-2.52 8.38.38 2.08 2.46 3.74 2.46 3.74s-.66-1.37-1.13-3.96c-.19-1.02.14-1.81.6-3.04l.16.16.58.68zm-22.46.87s.25-.61.74-.87c.5-.25 1.2-.3 2-.2.7.07 2.14.7 4.21 2.43 2.9 2.4 3.92 3.88 3.94 3.81.19-.58.88-1.7.88-1.7-1.36-1.2-6.13-4.32-7.62-4.91-1.67-.67-3.96-.85-4.15 1.44zM54.58 7.93s-5.4.87-8.08 1.73c-2.68.86-6.6 2.55-8.36 4.76-1.77 2.22-.28 5.73-.73 8.06-.46 2.34-3.93 4.72-3.93 4.72s4.04-1.04 5.53-4.29c1.1-2.4-.3-4.05 1.38-7.75 1.68-3.69 14.2-7.23 14.2-7.23zm1.58 13.29c-3.4-6.76 5.16-6.64 5.16-6.64-3.35.68-4.63 2.34-5.09 3.83a5.41 5.41 0 00-.07 2.8c-.06 0-1.69.06-3.33.78-1.66.74-3.34 2.17-3.37 4.96-.12-.21-3.65-6.36 6.7-5.73zm84.38 4c-.34 1.06-.82 1.52-1.59 1.52-.24 0-.6-.05-.83-.11l.05-1.03c.08.06.23.1.43.1.46 0 .68-.5.68-.9l-1.58-4.55h1.43l.85 3.08h.02l.8-3.08h1.35l-1.61 4.97zm-49.65 0c-.34 1.06-.82 1.52-1.6 1.52-.24 0-.59-.05-.82-.11l.04-1.03c.09.06.24.1.44.1.46 0 .68-.5.68-.9l-1.58-4.55h1.43l.85 3.08h.02l.8-3.08h1.34l-1.6 4.97zm-46.61-1s2.74.38 4.36 2.27c0 0-2.21-1.72-4.73-1.28 0 0 .24-.5.37-1zm93.05-4.14c-.22-.12-.59-.35-1.24-.35-.96 0-1.58.78-1.58 2.01 0 1.19.7 2 1.6 2 .7 0 1.11-.27 1.25-.33l.06 1.28c-.25.08-.76.21-1.53.21-1.67 0-2.84-1.25-2.84-3.18 0-2.23 1.5-3.12 2.74-3.12.9 0 1.37.2 1.6.3l-.06 1.18zm19.91 3.77c0 .43.01.71.04.95h-1.26a8.7 8.7 0 01-.04-.76h-.01c-.21.5-.56.83-1.29.83-1 0-1.33-.73-1.33-1.64v-2.98h1.38v2.8c0 .57.25.72.53.72.45 0 .6-.39.6-.97v-2.55h1.38v3.6zm-35-3.6h.8v-.93l1.34-.43v1.36h.89v.97h-.9v2.09c0 .44.2.57.47.57.2 0 .31-.04.46-.1v.97c-.15.05-.52.12-.97.12-.71 0-1.33-.35-1.33-1.35v-2.3h-.75v-.97zm-.45 2.64h-2.68c0 .54.35 1.04 1.13 1.04.47 0 .94-.18 1.28-.36l.03 1.04c-.45.16-.97.26-1.44.26-1.6 0-2.3-.97-2.3-2.36 0-1.22.71-2.33 2.01-2.33.41 0 1.97 0 1.97 2.38v.33zm-12.76.89c0 .57.02.81.04 1.02h-1.32a7.6 7.6 0 01-.03-.73h-.02c-.14.28-.44.8-1.24.8-1.02 0-1.6-1-1.6-2.45 0-1.23.46-2.24 1.6-2.24.64 0 1 .33 1.17.74h.02v-2.67h1.38v5.53zm4.51-3.31c.36-.11.97-.29 1.47-.29 1.6 0 1.97.66 1.97 1.68v1.66c0 .67 0 .97.03 1.28h-1.26l-.03-.63h-.02c-.06.28-.6.7-1.25.7-.85 0-1.4-.55-1.4-1.38 0-1.52 1.77-1.53 2.25-1.53h.42c0-.87-.65-.87-.85-.87-.35 0-.72.08-1.27.4l-.06-1.02zM102 20.18c1.4 0 2.14.97 2.14 2.33 0 1.38-.74 2.36-2.14 2.36-1.4 0-2.14-.98-2.14-2.36 0-1.36.74-2.33 2.14-2.33zM126 18.25h1.38v2.67h.02c.16-.5.66-.74 1.16-.74 1 0 1.34.73 1.34 1.64v2.98h-1.38V22c0-.57-.26-.72-.54-.72-.44 0-.6.38-.6.97v2.55H126v-6.55zm-41.3.45h1.44v5h2.01v1.1H84.7v-6.1zM110 21.2c0-.44 0-.71-.04-.95h1.26l.04.82h.01c.28-.49.48-.89 1.27-.89h.2v1.27a1.82 1.82 0 00-.46-.05c-.8 0-.9.7-.9 1.37v2.03h-1.38v-3.6zm39.96 0c0-.44 0-.71-.03-.95h1.25l.04.82h.02c.28-.49.47-.89 1.26-.89h.2v1.27a1.84 1.84 0 00-.46-.05c-.8 0-.9.7-.9 1.37v2.03h-1.38v-3.6zm-55.99-.95l.66 3.24h.02l.65-3.24h1.57l.62 3.24h.02l.63-3.24h1.31l-1.21 4.55h-1.47l-.74-3.33H96l-.7 3.33h-1.5l-1.22-4.55h1.38zM147.61 22c0-.53-.22-.72-.52-.72-.41 0-.57.3-.57.64v2.88h-1.38V22c0-.58-.25-.72-.48-.72-.45 0-.61.4-.61.97v2.55h-1.38v-3.6c0-.43 0-.71-.04-.95h1.26c.02.2.04.45.04.76h.01c.21-.5.56-.83 1.29-.83.65 0 .99.3 1.18.76.2-.43.52-.76 1.25-.76 1 0 1.33.73 1.33 1.64v2.98h-1.38V22zm-31.9.6c-.54 0-1.4.04-1.4.8 0 .6.47.6.59.6s.82-.02.82-1.13v-.26zM102 23.94c.48 0 .71-.53.71-1.42 0-.89-.23-1.39-.7-1.39-.49 0-.72.5-.72 1.39 0 .9.23 1.42.71 1.42zm4.97-.06c.57 0 .7-.82.7-1.34 0-.73-.14-1.4-.7-1.4-.61 0-.66.67-.66 1.4 0 .47.03 1.34.66 1.34zM12.8 20.63c2.02-.5 2.24.82 2.67 1.14l1.54.95c-2.08-4.62-4.2-2.1-4.2-2.1zm107.74 1.5c0-.57-.15-1.11-.72-1.11-.7 0-.7.87-.7 1.12h1.42zm-64.92-1.17c-8.08-1.95-10.6-.56-10.6-.56s.18-.45.3-.7c.17-.41.22-.52.28-.61a22 22 0 0110.02 1.87zM24.17 12.7s-2.73-.87-4.44.52l.9 1.54s2.6-2.12 4.52.92c0 0-1.43 1.87-4.45 1.35 0 0 .82 1.41 2.82 1.4 2.01-.01 3.96-2.03 4.59-1.35 0 0-.21-2.87 3.29-3.88 0 0 .8.65.94 1.02 0 0 1.15-.91 1.09-3.13-.06-2.22-1.31-3.23-1.76-3.61 0 0 .26 1.32-.33 2.56-.34.72-1.1 1.62-2.25 1.65 0 0-.95.02-1.58-.17-.64-.2-3.14-1.04-3.34 1.18zm.5 3.11s-.9-.97-1.97-.97c-1.54 0-2.83 1.64-4.2 1.64s-2.06-.46-2.06-.46.83 1.12 2.14 1.12c1.7 0 2.96-1.67 4.1-1.67 1.11 0 2 .34 2 .34zm87.76-1.15c0 1.23-.92 1.75-1.9 1.75-.37 0-.98-.14-1.3-.27l.03-.74c.32.2.82.38 1.23.38.9 0 1.24-.53 1.24-1.3v-.7h-.01c-.29.5-.68.75-1.17.75-.92 0-1.54-.75-1.54-2.29 0-1.53.62-2.28 1.62-2.28.44 0 .84.28 1.09.7h.01l.03-.64h.71c0 .26-.04.54-.04.81v3.83zm-10.81-1.01l.03.82h-.7l-.03-.65h-.02c-.19.35-.52.71-1.17.71-.92 0-1.53-.75-1.53-2.29 0-1.53.61-2.28 1.53-2.28.5 0 .84.2 1.14.67h.01v-2.7h.74v5.72zm-4.2 0l.03.82h-.7l-.03-.65h-.02c-.19.35-.52.71-1.17.71-.92 0-1.53-.75-1.53-2.29 0-1.53.61-2.28 1.53-2.28.5 0 .84.2 1.14.67h.01v-2.7h.74v5.72zm-5.84-3.7c1.18 0 1.79.9 1.79 2.3s-.61 2.28-1.8 2.28c-1.17 0-1.78-.89-1.78-2.29s.6-2.28 1.79-2.28zm22.02.37c.37-.23.82-.36 1.26-.36.66 0 1.05.28 1.19.42.2.19.38.46.38 1.09v2.32c0 .26.02.52.04.68h-.66l-.05-.6h-.02c-.2.34-.56.66-1.25.66-.73 0-1.28-.43-1.28-1.28 0-.86.57-1.5 2.1-1.5h.42v-.2c0-.34-.02-.53-.16-.72-.15-.2-.44-.28-.74-.28-.46 0-.9.18-1.15.46l-.08-.69zm3.87.66l-.03-.96h.7l.03.66h.02c.23-.5.6-.72 1.12-.72.78 0 1.3.44 1.3 1.42v3.1h-.73V11.6c0-.71-.26-1.01-.73-1.01-.58 0-.95.4-.95 1.2v2.68h-.73v-3.5zm-12.92 0c0-.32-.03-.65-.04-.96h.71l.03.7h.02c.23-.54.6-.76 1.26-.76v.72a1.33 1.33 0 00-.28-.02c-.56 0-.97.48-.97 1.45v2.36h-.73v-3.5zM84.8 8.39h.95l2.3 5.03h.02V8.39h.73v6.1h-.95l-2.3-5h-.01v5h-.74v-6.1zm17.88 6.09h.74v-4.45h-.74v4.45zm13.05-2.18c-.13-.02-.3-.02-.51-.02-.86 0-1.28.41-1.28.93 0 .47.25.77.76.77.63 0 1.03-.51 1.03-1.12v-.56zm-5 1.65c.66 0 .97-.58.97-1.7 0-1.11-.3-1.69-.98-1.69-.67 0-.98.58-.98 1.7 0 1.11.31 1.69.98 1.69zm-10.82-3.4c-.68 0-.98.59-.98 1.7 0 1.12.3 1.7.98 1.7.67 0 .97-.58.97-1.7 0-1.11-.3-1.7-.97-1.7zm-4.2 0c-.68 0-.98.59-.98 1.7 0 1.12.3 1.7.98 1.7.67 0 .97-.58.97-1.7 0-1.11-.3-1.7-.97-1.7zm-4.13 3.4c.7 0 1.02-.58 1.02-1.7 0-1.11-.32-1.69-1.02-1.69s-1.03.58-1.03 1.7c0 1.11.33 1.69 1.03 1.69zM54.72 8.19s-4.46 1.38-5.87 5.74l2-.44s.03-2.72 3.87-5.3zm-27.5 4.34s-.83 1.44-2.13.6c0 0 .03-.85.77-.77.73.08.64.38 1.37.17zM64.82 9.6h.01v.01h-.01zm37.84-.53h.8v-.88h-.8v.88z" fill-rule="nonzero"/></svg>